<?xml version="1.0" encoding="utf-8"?>
<!-- Generator: Adobe Illustrator 22.0.1, SVG Export Plug-In . SVG Version: 6.00 Build 0)  -->
<svg version="1.1" id="레이어_1" xmlns="http://www.w3.org/2000/svg" xmlns:xlink="http://www.w3.org/1999/xlink" x="0px"
	 y="0px" viewBox="0 0 40 40" style="enable-background:new 0 0 40 40;" xml:space="preserve">
<style type="text/css">
	.st0{fill:#FFFFFF;}
</style>
<g>
	<path class="st0" d="M33.5,30L27,24.5c1.4-2,2.3-4.4,2.3-7C29.3,11,24,5.7,17.5,5.7S5.7,11,5.7,17.5S11,29.3,17.5,29.3
		c2.6,0,5-0.9,7-2.3l5.5,6.4c0.1,0.1,0.2,0.2,0.3,0.3c1,0.9,2.6,0.8,3.5-0.3C34.6,32.4,34.5,30.9,33.5,30z M8.3,17.5
		c0-5.1,4.1-9.2,9.2-9.2s9.2,4.1,9.2,9.2s-4.1,9.2-9.2,9.2S8.3,22.6,8.3,17.5z"/>
	<path class="st0" d="M22.4,16.3h-9.7c-0.7,0-1.2,0.5-1.2,1.2c0,0.7,0.5,1.2,1.2,1.2h9.7c0.7,0,1.2-0.5,1.2-1.2
		C23.6,16.8,23,16.3,22.4,16.3z"/>
	<path class="st0" d="M15,14.1H20c0.7,0,1.2-0.5,1.2-1.2c0-0.7-0.5-1.2-1.2-1.2H15c-0.7,0-1.2,0.5-1.2,1.2
		C13.7,13.6,14.3,14.1,15,14.1z"/>
	<path class="st0" d="M20,20.9H15c-0.7,0-1.2,0.5-1.2,1.2s0.5,1.2,1.2,1.2H20c0.7,0,1.2-0.5,1.2-1.2C21.3,21.5,20.7,20.9,20,20.9z"
		/>
</g>
<g>
</g>
<g>
</g>
<g>
</g>
<g>
</g>
<g>
</g>
<g>
</g>
</svg>
