<?xml version="1.0" encoding="utf-8"?>
<!-- Generator: Adobe Illustrator 22.0.1, SVG Export Plug-In . SVG Version: 6.00 Build 0)  -->
<svg version="1.1" xmlns="http://www.w3.org/2000/svg" xmlns:xlink="http://www.w3.org/1999/xlink" x="0px" y="0px"
	 viewBox="0 0 335.986 235.191" enable-background="new 0 0 335.986 235.191" xml:space="preserve">
<g id="text">
</g>
<g id="bg" opacity="0.2">
	<g>
		<path fill="#FFFFFF" d="M217.414,125.7c0,26.633-21.591,48.225-48.225,48.225c-26.635,0-48.226-21.592-48.226-48.225
			s21.591-48.224,48.226-48.224C195.823,77.476,217.414,99.067,217.414,125.7z"/>
		<g>
			<path fill-rule="evenodd" clip-rule="evenodd" fill="#FFFFFF" d="M300.679,53.477L289.93,64.229l-5.345-5.345
				c-0.274-0.276-0.722-0.276-0.998,0l-2.045,2.048c-0.274,0.274-0.274,0.724,0,0.997c9.719,9.723-1.833-1.833,7.887,7.887
				l0.012,0.012v0.002c0.281,0.239,0.704,0.269,0.985-0.014c4.434-4.427,8.867-8.863,13.295-13.293c0.273-0.276,0.273-0.726,0-1
				l-2.048-2.046C301.399,53.202,300.953,53.202,300.679,53.477z"/>
		</g>
		<path fill="#FFFFFF" d="M65.437,58.718c0,11.415-9.252,20.669-20.666,20.669c-11.413,0-20.666-9.254-20.666-20.669
			c0-11.414,9.253-20.666,20.666-20.666C56.185,38.052,65.437,47.304,65.437,58.718z"/>
		
			<rect x="133.286" y="11.559" fill="#FFFFFF" stroke="#0E3C54" stroke-width="2" stroke-miterlimit="10" width="68.4" height="31.134"/>
	</g>
	
		<line fill="#FFFFFF" stroke="#0E3C54" stroke-width="2" stroke-linecap="round" stroke-linejoin="round" stroke-miterlimit="10" x1="295.729" y1="216.231" x2="313.601" y2="198.359"/>
	
		<line fill="#FFFFFF" stroke="#0E3C54" stroke-width="2" stroke-linecap="round" stroke-linejoin="round" stroke-miterlimit="10" x1="282.415" y1="220.79" x2="300.287" y2="202.918"/>
	
		<line fill="#FFFFFF" stroke="#0E3C54" stroke-width="2" stroke-linecap="round" stroke-linejoin="round" stroke-miterlimit="10" x1="252.09" y1="50.709" x2="269.962" y2="32.837"/>
	
		<line fill="#FFFFFF" stroke="#0E3C54" stroke-width="2" stroke-linecap="round" stroke-linejoin="round" stroke-miterlimit="10" x1="238.776" y1="55.267" x2="256.648" y2="37.395"/>
	
		<line fill="#FFFFFF" stroke="#0E3C54" stroke-width="2" stroke-linecap="round" stroke-linejoin="round" stroke-miterlimit="10" x1="90.969" y1="36.246" x2="73.097" y2="54.118"/>
	
		<line fill="#FFFFFF" stroke="#0E3C54" stroke-width="2" stroke-linecap="round" stroke-linejoin="round" stroke-miterlimit="10" x1="104.282" y1="31.688" x2="86.41" y2="49.56"/>
	
		<line fill="#FFFFFF" stroke="#0E3C54" stroke-width="2" stroke-linecap="round" stroke-linejoin="round" stroke-miterlimit="10" x1="18.942" y1="167.882" x2="36.814" y2="150.01"/>
	
		<line fill="#FFFFFF" stroke="#0E3C54" stroke-width="2" stroke-linecap="round" stroke-linejoin="round" stroke-miterlimit="10" x1="9.765" y1="177.064" x2="13.257" y2="173.572"/>
	
		<line fill="none" stroke="#0E3C54" stroke-width="2" stroke-miterlimit="10" stroke-dasharray="2" x1="4.319" y1="171.616" x2="22.191" y2="153.744"/>
	
		<line fill="#FFFFFF" stroke="#0E3C54" stroke-width="2" stroke-linecap="round" stroke-linejoin="round" stroke-miterlimit="10" x1="298.471" y1="111.861" x2="316.343" y2="93.988"/>
	
		<line fill="#FFFFFF" stroke="#0E3C54" stroke-width="2" stroke-linecap="round" stroke-linejoin="round" stroke-miterlimit="10" x1="289.294" y1="121.043" x2="292.786" y2="117.551"/>
	
		<line fill="none" stroke="#0E3C54" stroke-width="2" stroke-miterlimit="10" stroke-dasharray="2" x1="283.848" y1="115.594" x2="301.72" y2="97.723"/>
	<g>
		<polyline fill="none" stroke="#231F20" stroke-width="2" stroke-linejoin="round" stroke-miterlimit="10" points="45.508,19.815 
			45.081,26.575 51.773,26.078 		"/>
		
			<line fill="none" stroke="#231F20" stroke-width="2" stroke-linejoin="round" stroke-miterlimit="10" x1="44.973" y1="26.467" x2="61.761" y2="9.677"/>
	</g>
	<polyline fill="none" stroke="#231F20" stroke-width="2" stroke-linejoin="round" stroke-miterlimit="10" points="9.121,50.488 
		2.333,50.918 2.83,44.199 	"/>
	
		<line fill="none" stroke="#0E3C54" stroke-width="2" stroke-miterlimit="10" stroke-dasharray="2" x1="2.67" y1="50.916" x2="20" y2="33.586"/>
	
		<line fill="none" stroke="#0E3C54" stroke-width="2" stroke-miterlimit="10" stroke-dasharray="2" x1="22.71" y1="30.878" x2="40.582" y2="13.006"/>
	<g>
		<polyline fill="none" stroke="#231F20" stroke-width="2" stroke-linejoin="round" stroke-miterlimit="10" points="309.45,175.998 
			309.878,169.236 303.185,169.733 		"/>
		
			<line fill="none" stroke="#231F20" stroke-width="2" stroke-linejoin="round" stroke-miterlimit="10" x1="309.986" y1="169.344" x2="293.198" y2="186.134"/>
	</g>
	<g>
		<polyline fill="none" stroke="#231F20" stroke-width="2" stroke-linejoin="round" stroke-miterlimit="10" points="125.647,219.93 
			126.074,213.171 119.382,213.668 		"/>
		
			<line fill="none" stroke="#231F20" stroke-width="2" stroke-linejoin="round" stroke-miterlimit="10" x1="126.183" y1="213.279" x2="109.395" y2="230.069"/>
	</g>
	<g>
		<polyline fill="none" stroke="#231F20" stroke-width="2" stroke-linejoin="round" stroke-miterlimit="10" points="295.555,20.557 
			295.127,27.317 301.82,26.82 		"/>
		
			<line fill="none" stroke="#231F20" stroke-width="2" stroke-linejoin="round" stroke-miterlimit="10" x1="295.019" y1="27.209" x2="311.807" y2="10.419"/>
	</g>
	<polyline fill="none" stroke="#231F20" stroke-width="2" stroke-linejoin="round" stroke-miterlimit="10" points="312.301,159.026 
		318.439,158.638 317.99,164.714 	"/>
	
		<line fill="none" stroke="#0E3C54" stroke-width="2" stroke-miterlimit="10" stroke-dasharray="2" x1="333.667" y1="164.505" x2="316.337" y2="181.835"/>
	<g>
		
			<line fill="#FFFFFF" stroke="#0E3C54" stroke-width="2" stroke-miterlimit="10" x1="18.757" y1="191.736" x2="16.162" y2="194.332"/>
		
			<line fill="#FFFFFF" stroke="#0E3C54" stroke-width="2" stroke-miterlimit="10" x1="11.265" y1="191.509" x2="13.86" y2="194.105"/>
		
			<line fill="#FFFFFF" stroke="#0E3C54" stroke-width="2" stroke-miterlimit="10" x1="11.368" y1="199.126" x2="13.961" y2="196.532"/>
		
			<line fill="#FFFFFF" stroke="#0E3C54" stroke-width="2" stroke-miterlimit="10" x1="18.86" y1="199.352" x2="16.265" y2="196.759"/>
	</g>
	<g>
		
			<line fill="#FFFFFF" stroke="#0E3C54" stroke-width="2" stroke-miterlimit="10" x1="52.115" y1="61.849" x2="49.767" y2="64.197"/>
		
			<line fill="#FFFFFF" stroke="#0E3C54" stroke-width="2" stroke-miterlimit="10" x1="45.339" y1="61.644" x2="47.685" y2="63.992"/>
		
			<line fill="#FFFFFF" stroke="#0E3C54" stroke-width="2" stroke-miterlimit="10" x1="45.432" y1="68.533" x2="47.777" y2="66.187"/>
		
			<line fill="#FFFFFF" stroke="#0E3C54" stroke-width="2" stroke-miterlimit="10" x1="52.208" y1="68.738" x2="49.861" y2="66.392"/>
	</g>
	<g>
		
			<line fill="#FFFFFF" stroke="#0E3C54" stroke-width="2" stroke-miterlimit="10" x1="264.655" y1="9.191" x2="262.059" y2="11.787"/>
		
			<line fill="#FFFFFF" stroke="#0E3C54" stroke-width="2" stroke-miterlimit="10" x1="257.162" y1="8.964" x2="259.757" y2="11.56"/>
		
			<line fill="#FFFFFF" stroke="#0E3C54" stroke-width="2" stroke-miterlimit="10" x1="257.265" y1="16.581" x2="259.858" y2="13.987"/>
		
			<line fill="#FFFFFF" stroke="#0E3C54" stroke-width="2" stroke-miterlimit="10" x1="264.757" y1="16.808" x2="262.163" y2="14.214"/>
	</g>
	<g>
		
			<line fill="#FFFFFF" stroke="#0E3C54" stroke-width="2" stroke-miterlimit="10" x1="37.441" y1="101.145" x2="34.846" y2="103.741"/>
		
			<line fill="#FFFFFF" stroke="#0E3C54" stroke-width="2" stroke-miterlimit="10" x1="29.949" y1="100.918" x2="32.544" y2="103.514"/>
		
			<line fill="#FFFFFF" stroke="#0E3C54" stroke-width="2" stroke-miterlimit="10" x1="30.051" y1="108.535" x2="32.645" y2="105.941"/>
		
			<line fill="#FFFFFF" stroke="#0E3C54" stroke-width="2" stroke-miterlimit="10" x1="37.544" y1="108.762" x2="34.949" y2="106.168"/>
	</g>
	<g>
		
			<line fill="#FFFFFF" stroke="#0E3C54" stroke-width="2" stroke-miterlimit="10" x1="223.487" y1="221.649" x2="220.891" y2="224.245"/>
		
			<line fill="#FFFFFF" stroke="#0E3C54" stroke-width="2" stroke-miterlimit="10" x1="215.995" y1="221.423" x2="218.589" y2="224.018"/>
		
			<line fill="#FFFFFF" stroke="#0E3C54" stroke-width="2" stroke-miterlimit="10" x1="216.097" y1="229.039" x2="218.691" y2="226.446"/>
		
			<line fill="#FFFFFF" stroke="#0E3C54" stroke-width="2" stroke-miterlimit="10" x1="223.59" y1="229.266" x2="220.995" y2="226.672"/>
	</g>
	<path fill="none" stroke="#0E3C54" stroke-width="2" stroke-miterlimit="10" d="M13.122,73.666c0,1.854-1.503,3.357-3.357,3.357
		c-1.854,0-3.357-1.503-3.357-3.357c0-1.854,1.503-3.357,3.357-3.357C11.619,70.309,13.122,71.812,13.122,73.666z"/>
	<path fill="none" stroke="#0E3C54" stroke-width="2" stroke-miterlimit="10" d="M41.701,211.854c0,1.855-1.503,3.358-3.357,3.358
		c-1.854,0-3.357-1.503-3.357-3.358c0-1.853,1.503-3.356,3.357-3.356C40.198,208.498,41.701,210.001,41.701,211.854z"/>
	<path fill="none" stroke="#0E3C54" stroke-width="2" stroke-miterlimit="10" d="M319.546,224.34c0,1.853-1.503,3.356-3.357,3.356
		c-1.854,0-3.357-1.503-3.357-3.356c0-1.855,1.503-3.358,3.357-3.358C318.043,220.982,319.546,222.485,319.546,224.34z"/>
	<path fill="none" stroke="#0E3C54" stroke-width="2" stroke-miterlimit="10" d="M325.705,39.043c0,1.854-1.503,3.357-3.357,3.357
		c-1.854,0-3.357-1.503-3.357-3.357c0-1.854,1.503-3.357,3.357-3.357C324.202,35.686,325.705,37.189,325.705,39.043z"/>
	<path fill-rule="evenodd" clip-rule="evenodd" fill="none" stroke="#34525C" stroke-width="2" stroke-miterlimit="10" d="
		M310.312,44.777c0.542,2.357,0.828,4.829,0.828,7.37c0,13.882-8.581,25.576-20.263,29.104c-0.371,0.112-0.717,0.112-1.08,0
		c-11.682-3.528-20.263-15.222-20.263-29.104c0-2.542,0.284-5.014,0.829-7.37c0.125-0.534,0.436-0.946,0.914-1.213
		c0.477-0.269,0.984-0.316,1.503-0.143c1.498,0.497,3.079,0.768,4.726,0.768c4.475,0,8.526-1.994,11.451-5.202
		c0.363-0.403,0.834-0.609,1.382-0.609c0.544,0,1.015,0.206,1.385,0.609c2.918,3.209,6.969,5.202,11.445,5.202
		c1.641,0,3.228-0.271,4.724-0.768c0.52-0.173,1.033-0.126,1.506,0.143C309.876,43.831,310.186,44.243,310.312,44.777z"/>
	<path fill-rule="evenodd" clip-rule="evenodd" fill="none" stroke="#34525C" stroke-width="2" stroke-miterlimit="10" d="
		M307.036,47.525c-1.272,0.269-2.566,0.407-3.867,0.407c-4.821,0-9.32-1.854-12.83-5.04c-3.515,3.186-8.012,5.04-12.833,5.04
		c-1.301,0-2.597-0.138-3.861-0.407c-0.246,1.527-0.37,3.074-0.37,4.623c0,10.996,6.39,21.835,17.063,25.353
		c10.67-3.518,17.06-14.357,17.06-25.353C307.399,50.599,307.282,49.052,307.036,47.525z"/>
	<g>
		<g>
			<g>
				<path fill="none" stroke="#0E3C54" stroke-width="2" stroke-miterlimit="10" d="M298.891,51.69l-10.748,10.752l-5.345-5.345
					c-0.274-0.276-0.722-0.276-0.998,0l-2.045,2.048c-0.274,0.274-0.274,0.724,0,0.997c9.719,9.723-1.833-1.833,7.887,7.887
					l0.012,0.012v0.002c0.281,0.239,0.704,0.269,0.985-0.014c4.434-4.427,8.867-8.863,13.295-13.293c0.273-0.276,0.273-0.726,0-1
					l-2.048-2.046C299.612,51.414,299.165,51.414,298.891,51.69z"/>
			</g>
		</g>
	</g>
	<path fill="none" stroke="#0E3C54" stroke-width="2" stroke-miterlimit="10" d="M63.226,55.401
		c0,11.415-9.252,20.669-20.666,20.669c-11.413,0-20.666-9.253-20.666-20.669c0-11.414,9.253-20.666,20.666-20.666
		C53.973,34.735,63.226,43.987,63.226,55.401z"/>
	<path fill="none" stroke="#0E3C54" stroke-width="2" stroke-miterlimit="10" d="M133.286,46.437c0,1.175,0.734,2.129,1.655,2.129
		h65.072c0.921,0,1.672-0.954,1.672-2.129v-7.565h-68.4V46.437z"/>
	<path fill="none" stroke="#0E3C54" stroke-width="2" stroke-miterlimit="10" d="M174.56,57.838c0,2.078-1.683,3.759-3.759,3.759
		h-6.631c-2.076,0-3.759-1.681-3.759-3.759v-5.638c0-2.074,1.683-3.759,3.759-3.759h6.631c2.076,0,3.759,1.685,3.759,3.759V57.838z"
		/>
	<line fill="none" stroke="#0E3C54" stroke-width="2" stroke-miterlimit="10" x1="152.008" y1="61.596" x2="183.017" y2="61.596"/>
	<rect x="133.286" y="6.155" fill="none" stroke="#0E3C54" stroke-width="2" stroke-miterlimit="10" width="68.4" height="5.403"/>
	<g>
		<g>
			<path fill="#0E3C54" d="M44.315,47.376c0.057,0,0.115,0.004,0.173,0.011c0.609,0.076,0.997,0.537,0.867,1.029l-3.769,14.25
				c-0.118,0.445-0.62,0.763-1.165,0.763c-0.057,0-0.115-0.004-0.173-0.011c-0.609-0.076-0.997-0.537-0.867-1.029l3.769-14.25
				C43.267,47.694,43.769,47.376,44.315,47.376 M49.747,49.046c0.258,0,0.518,0.09,0.728,0.274l5.528,4.837
				c0.503,0.44,0.503,1.224,0,1.664l-5.528,4.837c-0.21,0.184-0.469,0.274-0.728,0.274c-0.308,0-0.614-0.128-0.833-0.378
				c-0.402-0.46-0.356-1.158,0.104-1.56l4.577-4.005l-4.577-4.005c-0.46-0.402-0.506-1.101-0.104-1.56
				C49.133,49.173,49.439,49.046,49.747,49.046 M35.372,49.046c0.308,0,0.614,0.128,0.833,0.378c0.402,0.46,0.356,1.158-0.104,1.56
				l-4.577,4.005l4.577,4.005c0.46,0.402,0.506,1.101,0.104,1.56c-0.219,0.25-0.525,0.378-0.833,0.378
				c-0.258,0-0.518-0.09-0.728-0.274l-5.528-4.837c-0.503-0.441-0.503-1.224,0-1.664l5.528-4.837
				C34.854,49.136,35.114,49.046,35.372,49.046 M44.315,45.376L44.315,45.376c-1.474,0-2.748,0.926-3.099,2.252l-2.937,11.105
				c-0.174-0.465-0.462-0.895-0.861-1.244l-2.857-2.5l2.857-2.5c0.624-0.546,0.998-1.303,1.054-2.131
				c0.055-0.828-0.215-1.627-0.762-2.252c-0.59-0.674-1.442-1.061-2.338-1.061h0c-0.752,0-1.478,0.273-2.045,0.768l-5.528,4.837
				c-0.674,0.59-1.061,1.442-1.061,2.337c0,0.896,0.387,1.747,1.06,2.337l5.528,4.837c0.566,0.496,1.292,0.768,2.045,0.768
				c0.742,0,1.454-0.265,2.011-0.739c-0.094,0.666,0.061,1.349,0.443,1.915c0.479,0.71,1.271,1.182,2.173,1.295
				c0.141,0.018,0.282,0.026,0.422,0.026c1.474,0,2.748-0.926,3.099-2.252l3.23-12.212c0.154,0.572,0.473,1.105,0.951,1.524
				l2.857,2.5l-2.857,2.5c-1.289,1.128-1.42,3.094-0.292,4.382c0.59,0.674,1.442,1.061,2.338,1.061c0.752,0,1.478-0.273,2.045-0.768
				l5.528-4.837c0.674-0.59,1.061-1.442,1.061-2.337s-0.387-1.747-1.061-2.337l-5.528-4.837c-0.566-0.496-1.292-0.768-2.045-0.768h0
				c-0.896,0-1.748,0.387-2.338,1.061c-0.01,0.012-0.021,0.024-0.031,0.036c-0.016-0.51-0.176-1.012-0.468-1.445
				c-0.479-0.71-1.271-1.182-2.173-1.295C44.595,45.385,44.455,45.376,44.315,45.376L44.315,45.376z"/>
		</g>
	</g>
	<g>
		<g>
			<path fill="#0E3C54" d="M167.647,39.122c-0.483-0.001-0.966-0.028-1.445-0.083c-0.712-0.084-1.236-0.707-1.197-1.423
				c0.047-0.816-0.424-1.573-1.177-1.892c-0.759-0.278-1.611-0.081-2.171,0.502c-0.482,0.529-1.292,0.594-1.852,0.148
				c-0.735-0.593-1.401-1.266-1.985-2.008c-0.436-0.556-0.371-1.353,0.148-1.832c0.6-0.544,0.8-1.403,0.502-2.156
				c-0.29-0.727-0.996-1.202-1.779-1.197h-0.033c-0.642,0-1.388-0.462-1.466-1.202c-0.108-0.948-0.108-1.905,0-2.853
				c0.074-0.701,0.678-1.225,1.383-1.197c0.821,0.029,1.581-0.434,1.932-1.177c0.31-0.757,0.109-1.627-0.502-2.171
				c-0.531-0.488-0.589-1.307-0.13-1.865c0.596-0.746,1.278-1.42,2.03-2.008c0.559-0.434,1.357-0.367,1.837,0.153
				c0.558,0.576,1.401,0.772,2.156,0.502c0.746-0.312,1.221-1.054,1.192-1.862c-0.025-0.709,0.499-1.318,1.205-1.398
				c0.938-0.104,1.886-0.101,2.823,0.01c0.711,0.081,1.236,0.703,1.197,1.418c-0.045,0.816,0.425,1.572,1.177,1.892
				c0.759,0.279,1.611,0.082,2.171-0.502c0.485-0.528,1.296-0.587,1.852-0.136c0.737,0.591,1.405,1.265,1.99,2.008
				c0.435,0.558,0.371,1.356-0.148,1.837c-0.787,0.712-0.848,1.928-0.136,2.715c0.372,0.412,0.904,0.642,1.459,0.633
				c0.632,0,1.368,0.462,1.45,1.202l0,0c0.108,0.948,0.108,1.905,0,2.853c-0.085,0.713-0.708,1.238-1.425,1.2h-0.123
				c-1.062,0-1.923,0.86-1.923,1.922c0,0.546,0.232,1.066,0.638,1.431c0.527,0.48,0.594,1.286,0.153,1.847
				c-0.598,0.745-1.279,1.418-2.03,2.008l0,0c-0.556,0.435-1.353,0.368-1.829-0.153c-0.56-0.576-1.404-0.772-2.161-0.502
				c-0.745,0.31-1.22,1.05-1.192,1.857c0.024,0.708-0.501,1.315-1.205,1.393C168.573,39.089,168.11,39.118,167.647,39.122z
				 M166.392,37.661c0.813,0.091,1.634,0.091,2.447,0c-0.037-1.378,0.779-2.635,2.053-3.162c1.286-0.493,2.741-0.169,3.697,0.823
				c0.648-0.513,1.237-1.096,1.757-1.739c-1.025-0.944-1.349-2.428-0.813-3.714c0.524-1.23,1.728-2.031,3.064-2.04h0.02h0.138
				c0.088-0.812,0.088-1.63,0-2.442c-0.023-0.016-0.05-0.026-0.078-0.03c-1.828,0.02-3.326-1.446-3.345-3.274
				c-0.01-0.935,0.376-1.83,1.062-2.465c-0.502-0.638-1.073-1.218-1.704-1.729c-0.958,1-2.426,1.321-3.714,0.813
				c-1.287-0.54-2.101-1.825-2.038-3.22c-0.813-0.091-1.634-0.091-2.447,0c0.034,1.377-0.781,2.633-2.053,3.162
				c-1.283,0.492-2.736,0.17-3.691-0.818c-0.648,0.513-1.237,1.096-1.757,1.739c1.023,0.947,1.347,2.431,0.813,3.719
				c-0.565,1.266-1.836,2.069-3.222,2.035c-0.088,0.81-0.088,1.627,0,2.437c0.029,0.017,0.06,0.029,0.093,0.035
				c1.347-0.012,2.565,0.798,3.074,2.045c0.519,1.279,0.196,2.745-0.813,3.686c0.507,0.642,1.084,1.226,1.722,1.739
				c0.956-1.004,2.426-1.326,3.714-0.813c1.285,0.537,2.098,1.818,2.038,3.21L166.392,37.661z M178.749,25.332L178.749,25.332z
				 M167.682,31.244c-2.567,0.001-4.649-2.078-4.65-4.645s2.078-4.649,4.645-4.65s4.649,2.078,4.65,4.645c0,0.001,0,0.002,0,0.003
				C172.326,29.162,170.248,31.242,167.682,31.244z M167.682,23.339c-1.802,0-3.262,1.461-3.262,3.262
				c0,1.802,1.461,3.262,3.262,3.262s3.262-1.461,3.262-3.262c0.001-1.802-1.458-3.263-3.26-3.265c-0.001,0-0.002,0-0.003,0V23.339z
				"/>
			<path fill="#0E3C54" d="M164.593,37.499c-0.003-0.604-0.367-1.156-0.928-1.393c-0.584-0.213-1.263-0.057-1.71,0.408
				c-0.619,0.678-1.68,0.765-2.409,0.185c-0.76-0.614-1.45-1.311-2.052-2.076c-0.566-0.721-0.481-1.772,0.192-2.393
				c0.472-0.428,0.631-1.109,0.398-1.698c-0.227-0.568-0.768-0.935-1.38-0.935c-0.894-0.021-1.822-0.597-1.924-1.574
				c-0.111-0.974-0.111-1.966,0.001-2.943c0.096-0.911,0.889-1.605,1.811-1.564c0.671,0.029,1.261-0.347,1.541-0.94
				c0.234-0.573,0.076-1.258-0.403-1.684c-0.698-0.642-0.773-1.71-0.175-2.438c0.612-0.766,1.318-1.464,2.095-2.07
				c0.736-0.572,1.765-0.486,2.397,0.198c0.437,0.451,1.112,0.608,1.711,0.393c0.564-0.236,0.94-0.825,0.918-1.457
				c-0.033-0.92,0.658-1.722,1.572-1.825c0.969-0.108,1.952-0.105,2.918,0.01c0.926,0.106,1.613,0.92,1.562,1.853
				c-0.036,0.639,0.337,1.237,0.925,1.487c0.586,0.215,1.264,0.058,1.709-0.407c0.626-0.68,1.688-0.759,2.412-0.171
				c0.759,0.608,1.451,1.306,2.056,2.073c0.572,0.736,0.488,1.766-0.193,2.398c-0.62,0.561-0.667,1.517-0.11,2.133
				c0.292,0.323,0.71,0.483,1.143,0.496c0.818,0,1.762,0.6,1.871,1.57c0.11,0.978,0.11,1.969,0,2.947
				c-0.111,0.93-0.931,1.624-1.861,1.567l-0.099,0.001c-0.831,0-1.508,0.676-1.508,1.507c-0.001,0.428,0.181,0.837,0.5,1.122
				c0.688,0.626,0.774,1.684,0.202,2.412c-0.619,0.771-1.325,1.47-2.1,2.077c-0.722,0.566-1.772,0.479-2.392-0.199
				c-0.438-0.45-1.113-0.607-1.715-0.391c-0.564,0.235-0.939,0.822-0.917,1.452c0.03,0.919-0.661,1.718-1.574,1.82
				c-0.472,0.055-0.953,0.084-1.427,0.088h-0.002h-0.002c-0.498-0.001-1-0.03-1.492-0.086c-0.832-0.098-1.47-0.764-1.556-1.573
				 M165.461,37.974c0.109,0.344,0.411,0.608,0.789,0.653c0.458,0.053,0.929,0.08,1.395,0.08c0.444-0.004,0.895-0.031,1.339-0.083
				c0.487-0.054,0.854-0.479,0.838-0.967c-0.035-0.973,0.546-1.879,1.447-2.254c0.923-0.333,1.945-0.096,2.617,0.595
				c0.336,0.368,0.892,0.416,1.276,0.116c0.726-0.568,1.385-1.221,1.962-1.94c0.303-0.384,0.257-0.949-0.108-1.281
				c-0.491-0.441-0.774-1.076-0.773-1.739c0-1.287,1.048-2.335,2.338-2.335h0.122c0.549,0.032,0.956-0.34,1.015-0.834
				c0.103-0.913,0.103-1.842-0.001-2.758c-0.056-0.513-0.605-0.832-1.079-0.833c-0.652,0-1.282-0.279-1.727-0.77
				c-0.864-0.956-0.789-2.436,0.165-3.301c0.361-0.333,0.405-0.883,0.1-1.275c-0.564-0.714-1.211-1.367-1.923-1.938
				c-0.387-0.313-0.952-0.272-1.287,0.093c-0.68,0.709-1.705,0.945-2.619,0.61c-0.929-0.395-1.502-1.317-1.447-2.304
				c0.026-0.495-0.338-0.926-0.831-0.983c-0.905-0.107-1.824-0.111-2.73-0.01c-0.486,0.055-0.854,0.482-0.836,0.971
				c0.035,0.974-0.546,1.883-1.447,2.259c-0.926,0.333-1.944,0.094-2.614-0.597c-0.342-0.371-0.892-0.418-1.285-0.113
				c-0.725,0.566-1.385,1.219-1.96,1.939c-0.322,0.391-0.282,0.961,0.087,1.3c0.736,0.656,0.981,1.716,0.605,2.634
				c-0.431,0.913-1.319,1.461-2.331,1.434c-0.492-0.024-0.905,0.344-0.956,0.825c-0.105,0.919-0.105,1.847-0.001,2.763
				c0.053,0.506,0.611,0.82,1.07,0.835c0.984,0,1.826,0.571,2.181,1.458c0.36,0.91,0.116,1.961-0.608,2.617
				c-0.355,0.328-0.401,0.886-0.1,1.269c0.564,0.715,1.209,1.368,1.919,1.941c0.387,0.307,0.952,0.262,1.286-0.105
				c0.681-0.71,1.706-0.945,2.619-0.612c0.849,0.359,1.401,1.159,1.449,2.047l0.568-0.082c-0.081-1.079-0.764-2.044-1.778-2.468
				c-1.13-0.45-2.411-0.17-3.254,0.716l-0.263,0.276l-0.297-0.24c-0.66-0.532-1.262-1.14-1.787-1.805l-0.236-0.3l0.279-0.261
				c0.877-0.818,1.163-2.115,0.712-3.227c-0.448-1.096-1.506-1.813-2.686-1.786l-0.118,0.001l-0.369-0.202l-0.023-0.204
				c-0.091-0.838-0.091-1.688,0-2.527l0.042-0.379l0.381,0.009c1.189,0.012,2.335-0.673,2.834-1.79
				c0.461-1.112,0.174-2.42-0.716-3.246l-0.284-0.263l0.243-0.302c0.538-0.666,1.15-1.272,1.822-1.803l0.294-0.233l0.261,0.27
				c0.842,0.87,2.116,1.154,3.245,0.72c1.094-0.456,1.817-1.568,1.787-2.765l-0.009-0.38l0.378-0.042
				c0.842-0.094,1.696-0.094,2.539,0l0.385,0.043l-0.017,0.388c-0.056,1.215,0.661,2.348,1.783,2.818
				c1.128,0.445,2.408,0.166,3.255-0.717l0.263-0.276l0.297,0.24c0.653,0.53,1.248,1.134,1.769,1.795l0.236,0.301l-0.281,0.26
				c-0.599,0.555-0.938,1.341-0.929,2.156c0.017,1.597,1.304,2.876,2.926,2.865l0.126-0.001l0.347,0.207l0.022,0.194
				c0.092,0.84,0.092,1.691,0,2.531l-0.041,0.37h-0.51c-1.189,0.008-2.243,0.71-2.703,1.788c-0.466,1.118-0.18,2.424,0.713,3.247
				l0.286,0.263l-0.244,0.302c-0.537,0.665-1.15,1.271-1.823,1.803l-0.295,0.234l-0.261-0.271c-0.841-0.874-2.112-1.159-3.25-0.723
				c-1.096,0.453-1.818,1.566-1.786,2.764l0.01,0.381l-0.378,0.042c-0.843,0.094-1.697,0.094-2.539,0L165.461,37.974z
				 M166.818,37.284c0.539,0.041,1.079,0.04,1.617-0.002c0.11-1.386,0.997-2.628,2.298-3.166c1.336-0.51,2.811-0.249,3.874,0.655
				c0.423-0.358,0.818-0.749,1.18-1.167c-0.926-1.059-1.188-2.577-0.637-3.895c0.56-1.317,1.811-2.196,3.225-2.287
				c0.042-0.552,0.041-1.107-0.002-1.659c-1.912-0.137-3.436-1.725-3.456-3.675c-0.011-0.918,0.322-1.807,0.922-2.493
				c-0.348-0.412-0.728-0.797-1.134-1.151c-1.071,0.913-2.556,1.168-3.883,0.644c-1.326-0.556-2.21-1.82-2.296-3.227
				c-0.543-0.042-1.09-0.042-1.632,0.001c-0.112,1.384-0.999,2.626-2.298,3.166c-1.33,0.509-2.805,0.25-3.869-0.651
				c-0.423,0.358-0.818,0.749-1.181,1.168c0.925,1.061,1.186,2.58,0.639,3.898c-0.586,1.313-1.824,2.175-3.226,2.281
				c-0.041,0.553-0.04,1.109,0.003,1.662c1.406,0.096,2.63,0.972,3.17,2.294c0.531,1.307,0.268,2.813-0.644,3.865
				c0.353,0.417,0.738,0.806,1.151,1.163c1.069-0.918,2.554-1.174,3.885-0.644C165.846,34.617,166.73,35.88,166.818,37.284z
				 M167.68,31.659c-2.79,0-5.061-2.269-5.063-5.06c-0.001-2.791,2.269-5.063,5.06-5.065c0.001,0,0.001,0,0.002,0
				c2.79,0,5.061,2.269,5.063,5.059c-0.002,2.792-2.272,5.063-5.059,5.066h-0.001C167.682,31.659,167.682,31.659,167.68,31.659z
				 M167.679,22.364c-0.001,0-0.001,0-0.002,0c-2.333,0.002-4.232,1.901-4.23,4.236c0.002,2.333,1.901,4.23,4.234,4.23
				c0.001,0,0.001,0,0.002,0l0,0c2.331-0.003,4.229-1.901,4.231-4.234C171.911,24.261,170.012,22.364,167.679,22.364z
				 M167.683,30.279c-2.028,0-3.677-1.649-3.677-3.677c0-1.887,1.43-3.447,3.262-3.653v-0.026h0.415
				c0.985,0.001,1.908,0.384,2.602,1.079c0.693,0.695,1.075,1.619,1.074,2.601C171.359,28.629,169.71,30.279,167.683,30.279z
				 M167.791,23.754l-0.108,0.001c-1.57,0-2.848,1.277-2.848,2.847c0,1.57,1.277,2.848,2.848,2.848c1.57,0,2.847-1.277,2.847-2.848
				c0-0.761-0.295-1.477-0.832-2.015C169.186,24.074,168.511,23.78,167.791,23.754z"/>
		</g>
	</g>
	
		<line fill="#FFFFFF" stroke="#0E3C54" stroke-width="2" stroke-linecap="round" stroke-linejoin="round" stroke-miterlimit="10" x1="43.517" y1="129.474" x2="294.862" y2="129.474"/>
</g>
<g id="Layer_1">
</g>
<g id="Layer_3">
</g>
<g id="Layer_4">
</g>
<g id="Layer_5">
</g>
<g id="Layer_6">
</g>
<g id="Layer_7">
</g>
</svg>
