<?xml version="1.0" encoding="utf-8"?>
<!-- Generator: Adobe Illustrator 22.0.1, SVG Export Plug-In . SVG Version: 6.00 Build 0)  -->
<svg version="1.1" id="레이어_1" xmlns="http://www.w3.org/2000/svg" xmlns:xlink="http://www.w3.org/1999/xlink" x="0px"
	 y="0px" viewBox="0 0 40 40" style="enable-background:new 0 0 40 40;" xml:space="preserve">
<style type="text/css">
	.st0{display:none;}
	.st1{display:inline;fill:#FFFFFF;}
	.st2{fill:#FFFFFF;}
</style>
<g class="st0">
	<path class="st1" d="M33.5,30L27,24.5c1.4-2,2.3-4.4,2.3-7C29.3,11,24,5.7,17.5,5.7S5.7,11,5.7,17.5S11,29.3,17.5,29.3
		c2.6,0,5-0.9,7-2.3l5.5,6.4c0.1,0.1,0.2,0.2,0.3,0.3c1,0.9,2.6,0.8,3.5-0.3C34.6,32.4,34.5,30.9,33.5,30z M8.3,17.5
		c0-5.1,4.1-9.2,9.2-9.2s9.2,4.1,9.2,9.2s-4.1,9.2-9.2,9.2S8.3,22.6,8.3,17.5z"/>
	<path class="st1" d="M22.4,16.3h-9.7c-0.7,0-1.2,0.5-1.2,1.2c0,0.7,0.5,1.2,1.2,1.2h9.7c0.7,0,1.2-0.5,1.2-1.2
		C23.6,16.8,23,16.3,22.4,16.3z"/>
	<path class="st1" d="M15,14.1H20c0.7,0,1.2-0.5,1.2-1.2c0-0.7-0.5-1.2-1.2-1.2H15c-0.7,0-1.2,0.5-1.2,1.2
		C13.7,13.6,14.3,14.1,15,14.1z"/>
	<path class="st1" d="M20,20.9H15c-0.7,0-1.2,0.5-1.2,1.2s0.5,1.2,1.2,1.2H20c0.7,0,1.2-0.5,1.2-1.2C21.3,21.5,20.7,20.9,20,20.9z"
		/>
</g>
<g class="st0">
	<path class="st1" d="M12.3,5l-5-0.3c-0.4,0-0.9,0.3-1,0.7C2.2,20.3,18.2,37.9,33.5,35c0.4-0.1,0.8-0.5,0.8-1l0.1-5
		c0-0.7-0.2-0.8-0.7-1l-7.2-2.5c-0.4-0.1-0.9,0.1-1.1,0.3l-2.5,1.8c-4.4-0.6-9.9-6.6-10.1-11.1l2-2.3c0.2-0.2,0.5-0.7,0.4-1.1
		l-1.8-7.4C13.2,5.4,13,5.1,12.3,5z"/>
</g>
<path class="st2" d="M37.6,15.4c-0.2-0.2-0.5-0.3-0.8-0.3l0,0H36c-1.2,0-2.2-1-2.2-2.2c0-0.6,0.2-1.1,0.6-1.5L37.6,8
	c0.3-0.3,0.4-0.8,0.2-1.2c-0.2-0.4-0.6-0.7-1-0.7H20.5c-1.5,0-2.8,0.6-3.8,1.5l0,0l-0.1,0.1c0,0-0.1,0.1-0.1,0.1L3.9,20.5l0,0
	c-1.1,1-1.8,2.5-1.8,4.1c0,3,2.5,5.5,5.5,5.5h0.3v3.7l3-1.3l3,1.3v-3.7h10c0.3,0,0.6-0.1,0.8-0.3l12.9-12.9l0,0
	C38,16.5,38,15.8,37.6,15.4z M32.4,19L32.4,19l-8.9,8.9h-9.6v-2.5H7.9v2.5H7.6c-1.8,0-3.3-1.5-3.3-3.3c0-1.8,1.5-3.3,3.3-3.3H24
	c0.3,0,0.6-0.1,0.8-0.3l6.9-6.9c0.4,1.4,1.4,2.5,2.7,3L32.4,19z"/>
<g>
</g>
<g>
</g>
<g>
</g>
<g>
</g>
<g>
</g>
<g>
</g>
</svg>
